<mxfile host="Electron" agent="Mozilla/5.0 (Windows NT 10.0; Win64; x64) AppleWebKit/537.36 (KHTML, like Gecko) draw.io/24.7.17 Chrome/128.0.6613.36 Electron/32.0.1 Safari/537.36" version="24.7.17">
  <diagram name="Page-1" id="27itjFHM9rGNrCz6KxUr">
    <mxGraphModel dx="1037" dy="751" grid="1" gridSize="10" guides="1" tooltips="1" connect="1" arrows="1" fold="1" page="1" pageScale="1" pageWidth="980" pageHeight="690" math="0" shadow="0">
      <root>
        <mxCell id="0" />
        <mxCell id="1" parent="0" />
        <mxCell id="sO0LX3ymnvVjopE2IR2N-1" value="" style="rounded=1;whiteSpace=wrap;html=1;fillColor=none;strokeColor=#10739E;strokeWidth=2;" parent="1" vertex="1">
          <mxGeometry x="160" y="240" width="40" height="40" as="geometry" />
        </mxCell>
        <mxCell id="sO0LX3ymnvVjopE2IR2N-2" value="0" style="text;html=1;align=center;verticalAlign=middle;whiteSpace=wrap;rounded=0;fontFamily=consolas;fontSize=16;fontColor=#10739E;" parent="1" vertex="1">
          <mxGeometry x="160" y="270" width="40" height="40" as="geometry" />
        </mxCell>
        <mxCell id="sO0LX3ymnvVjopE2IR2N-3" value="" style="rounded=1;whiteSpace=wrap;html=1;fillColor=none;strokeColor=#10739E;strokeWidth=2;" parent="1" vertex="1">
          <mxGeometry x="210" y="240" width="40" height="40" as="geometry" />
        </mxCell>
        <mxCell id="sO0LX3ymnvVjopE2IR2N-4" value="1" style="text;html=1;align=center;verticalAlign=middle;whiteSpace=wrap;rounded=0;fontFamily=consolas;fontSize=16;fontColor=#10739E;" parent="1" vertex="1">
          <mxGeometry x="210" y="270" width="40" height="40" as="geometry" />
        </mxCell>
        <mxCell id="sO0LX3ymnvVjopE2IR2N-5" value="" style="rounded=1;whiteSpace=wrap;html=1;fillColor=none;strokeColor=#10739E;strokeWidth=2;" parent="1" vertex="1">
          <mxGeometry x="260" y="240" width="40" height="40" as="geometry" />
        </mxCell>
        <mxCell id="sO0LX3ymnvVjopE2IR2N-6" value="2" style="text;html=1;align=center;verticalAlign=middle;whiteSpace=wrap;rounded=0;fontFamily=consolas;fontSize=16;fontColor=#10739E;" parent="1" vertex="1">
          <mxGeometry x="260" y="270" width="40" height="40" as="geometry" />
        </mxCell>
        <mxCell id="sO0LX3ymnvVjopE2IR2N-8" value="" style="rounded=1;whiteSpace=wrap;html=1;fillColor=none;strokeColor=#00CC66;strokeWidth=2;" parent="1" vertex="1">
          <mxGeometry x="220" y="340" width="40" height="40" as="geometry" />
        </mxCell>
        <mxCell id="sO0LX3ymnvVjopE2IR2N-11" value="" style="rounded=1;whiteSpace=wrap;html=1;fontFamily=consolas;fontSize=16;fillColor=none;strokeColor=#00CC66;strokeWidth=2;dashed=1;dashPattern=1 2;" parent="1" vertex="1">
          <mxGeometry x="270" y="340" width="110" height="40" as="geometry" />
        </mxCell>
        <mxCell id="sO0LX3ymnvVjopE2IR2N-14" value="" style="rounded=1;whiteSpace=wrap;html=1;fillColor=none;strokeColor=#00CC66;strokeWidth=2;" parent="1" vertex="1">
          <mxGeometry x="490" y="340" width="40" height="40" as="geometry" />
        </mxCell>
        <mxCell id="sO0LX3ymnvVjopE2IR2N-15" value="" style="rounded=1;whiteSpace=wrap;html=1;fillColor=none;strokeColor=#00CC66;strokeWidth=2;" parent="1" vertex="1">
          <mxGeometry x="540" y="340" width="40" height="40" as="geometry" />
        </mxCell>
        <mxCell id="sO0LX3ymnvVjopE2IR2N-16" value="front" style="text;html=1;align=center;verticalAlign=middle;whiteSpace=wrap;rounded=0;fontFamily=consolas;fontSize=16;fontColor=#00CC66;" parent="1" vertex="1">
          <mxGeometry x="210" y="370" width="60" height="40" as="geometry" />
        </mxCell>
        <mxCell id="sO0LX3ymnvVjopE2IR2N-17" value="back" style="text;html=1;align=center;verticalAlign=middle;whiteSpace=wrap;rounded=0;fontFamily=consolas;fontSize=16;fontColor=#00CC66;" parent="1" vertex="1">
          <mxGeometry x="530" y="370" width="60" height="40" as="geometry" />
        </mxCell>
        <mxCell id="sO0LX3ymnvVjopE2IR2N-18" value="" style="rounded=1;whiteSpace=wrap;html=1;fontFamily=consolas;fontSize=16;fillColor=none;strokeColor=#FF8000;fontColor=#FF8000;strokeWidth=2;dashed=1;dashPattern=1 2;" parent="1" vertex="1">
          <mxGeometry x="450" y="240" width="160" height="40" as="geometry" />
        </mxCell>
        <mxCell id="sO0LX3ymnvVjopE2IR2N-19" value="" style="rounded=1;whiteSpace=wrap;html=1;fillColor=none;strokeColor=#FF3333;strokeWidth=2;" parent="1" vertex="1">
          <mxGeometry x="670" y="240" width="40" height="40" as="geometry" />
        </mxCell>
        <mxCell id="sO0LX3ymnvVjopE2IR2N-20" value="" style="rounded=1;whiteSpace=wrap;html=1;fillColor=none;strokeColor=#10739E;strokeWidth=2;" parent="1" vertex="1">
          <mxGeometry x="810" y="240" width="40" height="40" as="geometry" />
        </mxCell>
        <mxCell id="sO0LX3ymnvVjopE2IR2N-21" value="" style="rounded=1;whiteSpace=wrap;html=1;fontFamily=consolas;fontSize=16;fillColor=none;strokeColor=#10739E;fontColor=#10739E;strokeWidth=2;dashed=1;dashPattern=1 2;" parent="1" vertex="1">
          <mxGeometry x="720" y="240" width="80" height="40" as="geometry" />
        </mxCell>
        <mxCell id="sO0LX3ymnvVjopE2IR2N-22" value="n - 1" style="text;html=1;align=center;verticalAlign=middle;whiteSpace=wrap;rounded=0;fontFamily=consolas;fontSize=16;fontColor=#10739E;" parent="1" vertex="1">
          <mxGeometry x="800" y="270" width="60" height="40" as="geometry" />
        </mxCell>
        <mxCell id="sO0LX3ymnvVjopE2IR2N-23" value="i" style="text;html=1;align=center;verticalAlign=middle;whiteSpace=wrap;rounded=0;fontFamily=consolas;fontSize=16;fontColor=#FF3333;" parent="1" vertex="1">
          <mxGeometry x="670" y="270" width="40" height="40" as="geometry" />
        </mxCell>
        <mxCell id="sO0LX3ymnvVjopE2IR2N-24" value="" style="rounded=1;whiteSpace=wrap;html=1;fillColor=none;strokeColor=#FF8000;strokeWidth=2;" parent="1" vertex="1">
          <mxGeometry x="620" y="240" width="40" height="40" as="geometry" />
        </mxCell>
        <mxCell id="sO0LX3ymnvVjopE2IR2N-25" value="i - 1" style="text;html=1;align=center;verticalAlign=middle;whiteSpace=wrap;rounded=0;fontFamily=consolas;fontSize=16;fontColor=#FF8000;" parent="1" vertex="1">
          <mxGeometry x="610" y="270" width="60" height="40" as="geometry" />
        </mxCell>
        <mxCell id="sO0LX3ymnvVjopE2IR2N-26" value="" style="rounded=1;whiteSpace=wrap;html=1;fillColor=none;strokeColor=#FF8000;strokeWidth=2;" parent="1" vertex="1">
          <mxGeometry x="400" y="240" width="40" height="40" as="geometry" />
        </mxCell>
        <mxCell id="sO0LX3ymnvVjopE2IR2N-27" value="i - k" style="text;html=1;align=center;verticalAlign=middle;whiteSpace=wrap;rounded=0;fontFamily=consolas;fontSize=16;fontColor=#FF8000;" parent="1" vertex="1">
          <mxGeometry x="390" y="270" width="60" height="40" as="geometry" />
        </mxCell>
        <mxCell id="sO0LX3ymnvVjopE2IR2N-28" value="" style="rounded=1;whiteSpace=wrap;html=1;fontFamily=consolas;fontSize=16;fillColor=none;strokeColor=#10739E;fontColor=#10739E;strokeWidth=2;dashed=1;dashPattern=1 2;" parent="1" vertex="1">
          <mxGeometry x="310" y="240" width="80" height="40" as="geometry" />
        </mxCell>
        <mxCell id="sO0LX3ymnvVjopE2IR2N-30" value="" style="rounded=1;whiteSpace=wrap;html=1;fillColor=none;strokeColor=#00CC66;strokeWidth=2;" parent="1" vertex="1">
          <mxGeometry x="440" y="340" width="40" height="40" as="geometry" />
        </mxCell>
        <mxCell id="sO0LX3ymnvVjopE2IR2N-32" value="D[front] là lớn nhất trong số k vị trí trước i" style="text;html=1;align=right;verticalAlign=middle;whiteSpace=wrap;rounded=0;fontFamily=Noto Sans;fontSize=16;fontColor=#000000;fontSource=https%3A%2F%2Ffonts.googleapis.com%2Fcss%3Ffamily%3DNoto%2BSans;" parent="1" vertex="1">
          <mxGeometry x="80" y="410" width="180" height="40" as="geometry" />
        </mxCell>
        <mxCell id="sO0LX3ymnvVjopE2IR2N-33" value="" style="shape=curlyBracket;whiteSpace=wrap;html=1;rounded=1;flipH=1;labelPosition=right;verticalLabelPosition=middle;align=left;verticalAlign=middle;rotation=90;" parent="1" vertex="1">
          <mxGeometry x="450" y="330" width="20" height="140" as="geometry" />
        </mxCell>
        <mxCell id="sO0LX3ymnvVjopE2IR2N-34" value="Các vị trí j bị loại bỏ&lt;br&gt;nếu D[j] &amp;lt;= D[i]" style="text;html=1;align=center;verticalAlign=middle;whiteSpace=wrap;rounded=0;fontFamily=Noto Sans;fontSize=16;fontColor=#000000;fontSource=https%3A%2F%2Ffonts.googleapis.com%2Fcss%3Ffamily%3DNoto%2BSans;" parent="1" vertex="1">
          <mxGeometry x="300" y="410" width="320" height="40" as="geometry" />
        </mxCell>
        <mxCell id="sO0LX3ymnvVjopE2IR2N-38" value="..." style="text;html=1;align=center;verticalAlign=middle;whiteSpace=wrap;rounded=0;fontFamily=consolas;fontSize=16;fontColor=#10739E;" parent="1" vertex="1">
          <mxGeometry x="310" y="270" width="80" height="40" as="geometry" />
        </mxCell>
        <mxCell id="sO0LX3ymnvVjopE2IR2N-39" value="..." style="text;html=1;align=center;verticalAlign=middle;whiteSpace=wrap;rounded=0;fontFamily=consolas;fontSize=16;fontColor=#10739E;" parent="1" vertex="1">
          <mxGeometry x="720" y="270" width="80" height="40" as="geometry" />
        </mxCell>
        <mxCell id="sO0LX3ymnvVjopE2IR2N-40" value="..." style="text;html=1;align=center;verticalAlign=middle;whiteSpace=wrap;rounded=0;fontFamily=consolas;fontSize=16;fontColor=#FF8000;" parent="1" vertex="1">
          <mxGeometry x="450" y="270" width="160" height="40" as="geometry" />
        </mxCell>
        <mxCell id="sO0LX3ymnvVjopE2IR2N-42" value="..." style="text;html=1;align=center;verticalAlign=middle;whiteSpace=wrap;rounded=0;fontFamily=consolas;fontSize=16;fontColor=#00CC66;" parent="1" vertex="1">
          <mxGeometry x="270" y="370" width="110" height="40" as="geometry" />
        </mxCell>
        <mxCell id="sO0LX3ymnvVjopE2IR2N-43" value="D" style="text;html=1;align=center;verticalAlign=middle;whiteSpace=wrap;rounded=0;fontFamily=consolas;fontSize=16;fontColor=#10739E;" parent="1" vertex="1">
          <mxGeometry x="120" y="240" width="40" height="40" as="geometry" />
        </mxCell>
        <mxCell id="sO0LX3ymnvVjopE2IR2N-45" value="Hàng đợi q" style="text;html=1;align=center;verticalAlign=middle;whiteSpace=wrap;rounded=0;fontFamily=consolas;fontSize=16;fontColor=#00CC66;" parent="1" vertex="1">
          <mxGeometry x="120" y="340" width="90" height="40" as="geometry" />
        </mxCell>
        <mxCell id="WO4glPO4Lhxu9D3865h6-1" value="" style="rounded=1;whiteSpace=wrap;html=1;fillColor=none;strokeColor=#00CC66;strokeWidth=2;" vertex="1" parent="1">
          <mxGeometry x="390" y="340" width="40" height="40" as="geometry" />
        </mxCell>
        <mxCell id="WO4glPO4Lhxu9D3865h6-2" value="" style="endArrow=classic;html=1;rounded=1;entryX=1;entryY=0.5;entryDx=0;entryDy=0;curved=0;fontColor=#FF3333;strokeColor=#FF3333;" edge="1" parent="1" source="sO0LX3ymnvVjopE2IR2N-23" target="sO0LX3ymnvVjopE2IR2N-15">
          <mxGeometry width="50" height="50" relative="1" as="geometry">
            <mxPoint x="460" y="410" as="sourcePoint" />
            <mxPoint x="600" y="360" as="targetPoint" />
            <Array as="points">
              <mxPoint x="690" y="360" />
            </Array>
          </mxGeometry>
        </mxCell>
        <mxCell id="WO4glPO4Lhxu9D3865h6-3" value="Nạp i vào&lt;br&gt;cuối hàng đợi" style="text;html=1;align=left;verticalAlign=middle;whiteSpace=wrap;rounded=0;fontFamily=Noto Sans;fontSize=16;fontColor=#FF3333;fontSource=https%3A%2F%2Ffonts.googleapis.com%2Fcss%3Ffamily%3DNoto%2BSans;labelBackgroundColor=default;" vertex="1" parent="1">
          <mxGeometry x="620" y="360" width="110" height="40" as="geometry" />
        </mxCell>
        <mxCell id="WO4glPO4Lhxu9D3865h6-5" value="Sau các thao tác loại bỏ, hàng đợi luôn được duy trì thứ tự mà trong đó các D[j] giảm dần" style="text;html=1;align=center;verticalAlign=middle;whiteSpace=wrap;rounded=0;fontFamily=Noto Sans;fontSize=16;fontColor=#000000;fontSource=https%3A%2F%2Ffonts.googleapis.com%2Fcss%3Ffamily%3DNoto%2BSans;" vertex="1" parent="1">
          <mxGeometry x="230" y="545" width="340" height="40" as="geometry" />
        </mxCell>
        <mxCell id="WO4glPO4Lhxu9D3865h6-6" value="" style="shape=curlyBracket;whiteSpace=wrap;html=1;rounded=1;flipH=1;labelPosition=right;verticalLabelPosition=middle;align=left;verticalAlign=middle;rotation=90;" vertex="1" parent="1">
          <mxGeometry x="390" y="340" width="20" height="370" as="geometry" />
        </mxCell>
        <mxCell id="WO4glPO4Lhxu9D3865h6-7" value="j tại front sẽ bị loại bỏ nếu j &amp;lt; i - k&amp;nbsp;" style="text;html=1;align=right;verticalAlign=middle;whiteSpace=wrap;rounded=0;fontFamily=Noto Sans;fontSize=16;fontColor=#000000;fontSource=https%3A%2F%2Ffonts.googleapis.com%2Fcss%3Ffamily%3DNoto%2BSans;" vertex="1" parent="1">
          <mxGeometry x="80" y="460" width="180" height="40" as="geometry" />
        </mxCell>
      </root>
    </mxGraphModel>
  </diagram>
</mxfile>
